<svg id="Capa_1" enable-background="new 0 0 512 512" height="512" viewBox="0 0 512 512" width="512" xmlns="http://www.w3.org/2000/svg"><path d="m256 0-128 256 128 256c141.385 0 256-114.615 256-256s-114.615-256-256-256z" fill="#58c4fe"/><path d="m0 256c0 141.385 114.615 256 256 256v-512c-141.385 0-256 114.615-256 256z" fill="#8adefd"/><path d="m256 60-98 196 98 196c108.248 0 196-87.752 196-196s-87.752-196-196-196z" fill="#8adefd"/><path d="m60 256c0 108.248 87.752 196 196 196v-392c-108.248 0-196 87.752-196 196z" fill="#bcf7fc"/><path d="m256 120-80 213.416h167.983l32.785-140c-22.649-43.617-68.226-73.416-120.768-73.416z" fill="#26abff"/><path d="m128.565 208.416-3.351 85c13.087 45.831 49.614 81.766 95.786 94.029h35v-267.445c-58.369 0-108.143 36.774-127.435 88.416z" fill="#58c4fe"/><path d="m196 263.416v-55h-67.435c-5.533 14.811-8.565 30.843-8.565 47.584 0 12.977 1.82 25.528 5.214 37.416h40.786c16.569 0 30-13.432 30-30z" fill="#5ca239"/><path d="m256 313.416h-5c-16.569 0-30 13.431-30 30v44.029c11.168 2.966 22.898 4.555 35 4.555l40-39.292z" fill="#5ca239"/><path d="m256 223.416c0 16.569 13.431 30 30 30h17.983v60h-47.983v78.584c75.111 0 136-60.889 136-136 0-22.569-5.503-43.85-15.232-62.584h-120.768z" fill="#438240"/></svg>