<svg height="512pt" viewBox="0 -4 512.00038 512" width="512pt" xmlns="http://www.w3.org/2000/svg"><path d="m326.523438 165.253906c-11.800782-38.980468-52.96875-61.015625-91.949219-49.214844-6.746094 2.042969-13.167969 5.042969-19.0625 8.910157-7.898438-42.433594-48.695313-70.429688-91.128907-62.53125-36.890624 6.863281-63.695312 38.984375-63.847656 76.507812v26.746094c-33.1875 5.054687-55.992187 36.054687-50.9375 69.238281 4.496094 29.519532 29.761719 51.398438 59.621094 51.628906h251.808594c33.570312-.164062 60.648437-27.511718 60.480468-61.082031-.152343-31.207031-23.917968-57.226562-54.984374-60.203125zm0 0" fill="#8aced8"/><path d="m173.414062 312.589844h17.367188v60.78125h-17.367188zm0 0" fill="#a8d6da"/><path d="m173.414062 442.835938h17.367188v60.78125h-17.367188zm0 0" fill="#6fbbc6"/><path d="m173.414062 390.738281h17.367188v34.730469h-17.367188zm0 0" fill="#a8d6da"/><path d="m277.613281 312.589844h17.367188v60.78125h-17.367188zm0 0" fill="#a8d6da"/><path d="m277.613281 442.835938h17.367188v60.78125h-17.367188zm0 0" fill="#6fbbc6"/><path d="m277.613281 390.738281h17.367188v34.730469h-17.367188zm0 0" fill="#a8d6da"/><path d="m225.515625 442.835938h17.363281v60.78125h-17.363281zm0 0" fill="#a8d6da"/><path d="m225.515625 364.6875h17.363281v60.78125h-17.363281zm0 0" fill="#6fbbc6"/><g fill="#a8d6da"><path d="m225.515625 312.589844h17.363281v34.730468h-17.363281zm0 0"/><path d="m381.808594 312.589844h17.367187v60.78125h-17.367187zm0 0"/><path d="m407.859375 156.292969h17.367187v17.367187h-17.367187zm0 0"/><path d="m407.859375 243.125h17.367187v26.050781h-17.367187zm0 0"/><path d="m459.957031 199.710938h17.367188v34.730468h-17.367188zm0 0"/></g><path d="m459.957031 251.808594h17.367188v17.367187h-17.367188zm0 0" fill="#6fbbc6"/><path d="m459.957031 156.292969h17.367188v26.050781h-17.367188zm0 0" fill="#6fbbc6"/><path d="m407.859375 191.027344h17.367187v34.730468h-17.367187zm0 0" fill="#6fbbc6"/><path d="m381.808594 442.835938h17.367187v60.78125h-17.367187zm0 0" fill="#a8d6da"/><path d="m381.808594 390.738281h17.367187v34.730469h-17.367187zm0 0" fill="#6fbbc6"/><path d="m329.710938 442.835938h17.367187v60.78125h-17.367187zm0 0" fill="#a8d6da"/><path d="m329.710938 364.6875h17.367187v60.78125h-17.367187zm0 0" fill="#a8d6da"/><path d="m329.710938 312.589844h17.367187v34.730468h-17.367187zm0 0" fill="#6fbbc6"/><path d="m121.316406 442.835938h17.367188v60.78125h-17.367188zm0 0" fill="#a8d6da"/><path d="m121.316406 364.6875h17.367188v60.78125h-17.367188zm0 0" fill="#a8d6da"/><path d="m121.316406 312.589844h17.367188v34.730468h-17.367188zm0 0" fill="#6fbbc6"/><path d="m69.21875 312.589844h17.367188v60.78125h-17.367188zm0 0" fill="#a8d6da"/><path d="m69.21875 442.835938h17.367188v60.78125h-17.367188zm0 0" fill="#a8d6da"/><path d="m69.21875 390.738281h17.367188v34.730469h-17.367188zm0 0" fill="#6fbbc6"/><path d="m17.121094 442.835938h17.363281v60.78125h-17.363281zm0 0" fill="#a8d6da"/><path d="m17.121094 364.6875h17.363281v60.78125h-17.363281zm0 0" fill="#a8d6da"/><path d="m17.121094 312.589844h17.363281v34.730468h-17.363281zm0 0" fill="#6fbbc6"/><path d="m485.789062 58.574219c.054688-.710938.21875-1.40625.21875-2.136719.078126-16.71875-13.414062-30.332031-30.128906-30.40625-6.621094-.03125-13.070312 2.109375-18.355468 6.09375-10.953126-21.25-37.058594-29.597656-58.308594-18.644531-14.449219 7.449219-23.503906 22.359375-23.453125 38.617187 0 .789063.191406 1.535156.234375 2.316406-20.351563 7.015626-31.164063 29.199219-24.152344 49.550782 5.433594 15.757812 20.277344 26.316406 36.941406 26.277344h95.515625c21.578125-.03125 39.050781-17.546876 39.019531-39.128907-.019531-13.097656-6.601562-25.316406-17.53125-32.539062zm0 0" fill="#69b0bb"/><path d="m69.21875 295.222656h251.808594c38.367187-.058594 69.417968-31.210937 69.355468-69.574218-.054687-33.660157-24.234374-62.441407-57.378906-68.296876-16.210937-42.574218-63.871094-63.945312-106.445312-47.734374-1.820313.691406-3.617188 1.449218-5.386719 2.269531-14.972656-45.554688-64.042969-70.347657-109.601563-55.375-35.609374 11.703125-59.6875 44.933593-59.71875 82.414062v19.640625c-37.109374 9.738282-59.296874 47.714844-49.558593 84.824219 7.988281 30.445313 35.449219 51.714844 66.925781 51.832031zm-7.441406-120.964844c4.273437-.617187 7.441406-4.277343 7.441406-8.59375v-26.738281c.171875-38.363281 31.414062-69.320312 69.78125-69.148437 33.324219.152344 61.847656 23.953125 67.96875 56.714844.847656 4.71875 5.359375 7.859374 10.082031 7.011718 1.152344-.207031 2.25-.648437 3.226563-1.289062 30.046875-19.699219 70.375-11.316406 90.074218 18.730468 3.414063 5.203126 6.0625 10.871094 7.863282 16.828126 1.027344 3.386718 4.003906 5.808593 7.527344 6.128906 28.640624 2.773437 49.609374 28.234375 46.839843 56.875-2.574219 26.589844-24.839843 46.925781-51.554687 47.078125h-251.808594c-28.773438-.234375-51.90625-23.75-51.671875-52.519531.207031-25.574219 18.949219-47.214844 44.230469-51.078126zm0 0"/><path d="m173.414062 312.589844h17.367188v60.78125h-17.367188zm0 0"/><path d="m173.414062 442.835938h17.367188v60.78125h-17.367188zm0 0"/><path d="m173.414062 390.738281h17.367188v34.730469h-17.367188zm0 0"/><path d="m277.613281 312.589844h17.367188v60.78125h-17.367188zm0 0"/><path d="m277.613281 442.835938h17.367188v60.78125h-17.367188zm0 0"/><path d="m277.613281 390.738281h17.367188v34.730469h-17.367188zm0 0"/><path d="m225.515625 442.835938h17.363281v60.78125h-17.363281zm0 0"/><path d="m225.515625 364.6875h17.363281v60.78125h-17.363281zm0 0"/><path d="m225.515625 312.589844h17.363281v34.730468h-17.363281zm0 0"/><path d="m381.808594 312.589844h17.367187v60.78125h-17.367187zm0 0"/><path d="m407.859375 156.292969h17.367187v17.367187h-17.367187zm0 0"/><path d="m407.859375 243.125h17.367187v26.050781h-17.367187zm0 0"/><path d="m459.957031 199.710938h17.367188v34.730468h-17.367188zm0 0"/><path d="m459.957031 251.808594h17.367188v17.367187h-17.367188zm0 0"/><path d="m459.957031 156.292969h17.367188v26.050781h-17.367188zm0 0"/><path d="m407.859375 191.027344h17.367187v34.730468h-17.367187zm0 0"/><path d="m381.808594 442.835938h17.367187v60.78125h-17.367187zm0 0"/><path d="m381.808594 390.738281h17.367187v34.730469h-17.367187zm0 0"/><path d="m329.710938 442.835938h17.367187v60.78125h-17.367187zm0 0"/><path d="m329.710938 364.6875h17.367187v60.78125h-17.367187zm0 0"/><path d="m329.710938 312.589844h17.367187v34.730468h-17.367187zm0 0"/><path d="m121.316406 442.835938h17.367188v60.78125h-17.367188zm0 0"/><path d="m121.316406 364.6875h17.367188v60.78125h-17.367188zm0 0"/><path d="m121.316406 312.589844h17.367188v34.730468h-17.367188zm0 0"/><path d="m69.21875 312.589844h17.367188v60.78125h-17.367188zm0 0"/><path d="m69.21875 442.835938h17.367188v60.78125h-17.367188zm0 0"/><path d="m69.21875 390.738281h17.367188v34.730469h-17.367188zm0 0"/><path d="m17.121094 442.835938h17.363281v60.78125h-17.363281zm0 0"/><path d="m17.121094 364.6875h17.363281v60.78125h-17.363281zm0 0"/><path d="m17.121094 312.589844h17.363281v34.730468h-17.363281zm0 0"/><path d="m494.628906 54.328125c-1.144531-20.714844-18.265625-36.9375-39.011718-36.964844-5.238282 0-10.421876 1.070313-15.230469 3.144531-17.367188-22.839843-49.960938-27.273437-72.800781-9.90625-12.023438 9.144532-19.472657 23.074219-20.402344 38.152344-23.484375 11.878906-32.890625 40.546875-21.011719 64.03125 8.125 16.0625 24.613281 26.175782 42.613281 26.140625h95.515625c26.375-.03125 47.730469-21.4375 47.699219-47.8125-.015625-14.238281-6.386719-27.726562-17.371094-36.785156zm-30.328125 67.234375h-95.515625c-16.726562.066406-30.34375-13.4375-30.410156-30.164062-.054688-12.992188 8.183594-24.570313 20.476562-28.777344 3.660157-1.273438 6.035157-4.816406 5.820313-8.683594-.039063-.617188-.113281-1.234375-.226563-1.839844-.082031-19.105468 15.339844-34.660156 34.445313-34.742187 13.027344-.054688 24.984375 7.214843 30.929687 18.808593 1.175782 2.253907 3.285157 3.878907 5.765626 4.445313 2.480468.582031 5.09375.03125 7.128906-1.503906 3.710937-2.820313 8.238281-4.355469 12.902344-4.375 11.988281 0 21.707031 9.71875 21.707031 21.707031v.105469c-.070313.457031-.121094.9375-.148438 1.421875-.207031 3.109375 1.269531 6.09375 3.867188 7.816406 14.019531 9.222656 17.910156 28.070312 8.683593 42.089844-5.628906 8.558594-15.1875 13.703125-25.425781 13.691406zm0 0"/></svg>